<svg width="27" height="27" viewBox="0 0 27 27" fill="none" xmlns="http://www.w3.org/2000/svg">
<path d="M21.1866 0.42857H5.11514C2.45331 0.42857 0.293711 2.58817 0.293711 5.25V21.3214C0.293711 23.9833 2.45331 26.1429 5.11514 26.1429H14.0214V16.1819H10.6732V12.298H14.0214V9.43527C14.0214 6.12053 16.0638 4.3125 19.027 4.3125C20.4332 4.3125 21.6553 4.41295 22.0069 4.46317V7.92857L19.9645 7.94531C18.3406 7.94531 18.0392 8.69866 18.0392 9.82031V12.298H21.873L21.3707 16.1819H18.0392V26.1429H21.1866C23.8484 26.1429 26.008 23.9833 26.008 21.3214V5.25C26.008 2.58817 23.8484 0.42857 21.1866 0.42857Z" fill="#242424"/>
</svg>
