<svg width="27" height="27" viewBox="0 0 27 27" fill="none" xmlns="http://www.w3.org/2000/svg">
<path d="M17.7466 13.2857C17.7466 15.6462 15.8214 17.5714 13.4609 17.5714C11.1004 17.5714 9.17521 15.6462 9.17521 13.2857C9.17521 10.9252 11.1004 9 13.4609 9C15.8214 9 17.7466 10.9252 17.7466 13.2857ZM20.0569 13.2857C20.0569 9.63616 17.1105 6.68973 13.4609 6.68973C9.81137 6.68973 6.86495 9.63616 6.86495 13.2857C6.86495 16.9353 9.81137 19.8817 13.4609 19.8817C17.1105 19.8817 20.0569 16.9353 20.0569 13.2857ZM21.8649 6.42188C21.8649 5.56808 21.1786 4.8817 20.3248 4.8817C19.471 4.8817 18.7846 5.56808 18.7846 6.42188C18.7846 7.27567 19.471 7.96205 20.3248 7.96205C21.1786 7.96205 21.8649 7.27567 21.8649 6.42188ZM13.4609 2.73884C15.3359 2.73884 19.3538 2.58817 21.0446 3.25781C21.6306 3.49219 22.0658 3.77678 22.5178 4.22879C22.9699 4.6808 23.2545 5.11607 23.4888 5.70201C24.1585 7.39286 24.0078 11.4107 24.0078 13.2857C24.0078 15.1607 24.1585 19.1786 23.4888 20.8694C23.2545 21.4554 22.9699 21.8906 22.5178 22.3426C22.0658 22.7946 21.6306 23.0792 21.0446 23.3136C19.3538 23.9833 15.3359 23.8326 13.4609 23.8326C11.5859 23.8326 7.56807 23.9833 5.87722 23.3136C5.29128 23.0792 4.85602 22.7946 4.40401 22.3426C3.952 21.8906 3.6674 21.4554 3.43303 20.8694C2.76338 19.1786 2.91405 15.1607 2.91405 13.2857C2.91405 11.4107 2.76338 7.39286 3.43303 5.70201C3.6674 5.11607 3.952 4.6808 4.40401 4.22879C4.85602 3.77678 5.29128 3.49219 5.87722 3.25781C7.56807 2.58817 11.5859 2.73884 13.4609 2.73884ZM26.3181 13.2857C26.3181 11.5112 26.3348 9.75335 26.2344 7.97879C26.1339 5.91964 25.6652 4.09487 24.1585 2.58817C22.6518 1.08147 20.827 0.612722 18.7678 0.512277C16.9933 0.41183 15.2355 0.42857 13.4609 0.42857C11.6864 0.42857 9.92856 0.41183 8.15401 0.512277C6.09486 0.612722 4.27008 1.08147 2.76338 2.58817C1.25669 4.09487 0.787936 5.91964 0.68749 7.97879C0.587043 9.75335 0.603785 11.5112 0.603785 13.2857C0.603785 15.0603 0.587043 16.8181 0.68749 18.5926C0.787936 20.6518 1.25669 22.4766 2.76338 23.9833C4.27008 25.49 6.09486 25.9587 8.15401 26.0592C9.92856 26.1596 11.6864 26.1429 13.4609 26.1429C15.2355 26.1429 16.9933 26.1596 18.7678 26.0592C20.827 25.9587 22.6518 25.49 24.1585 23.9833C25.6652 22.4766 26.1339 20.6518 26.2344 18.5926C26.3348 16.8181 26.3181 15.0603 26.3181 13.2857Z" fill="#242424"/>
</svg>
