<svg width="27" height="27" viewBox="0 0 27 27" fill="none" xmlns="http://www.w3.org/2000/svg">
<path d="M4.88149 21.9576V10.3393H8.74868V21.9576H4.88149ZM8.9998 6.7567C8.9998 7.86161 8.16274 8.76562 6.80672 8.76562H6.78997C5.48417 8.76562 4.64712 7.86161 4.64712 6.7567C4.64712 5.6183 5.51765 4.74777 6.8402 4.74777C8.16274 4.74777 8.98306 5.6183 8.9998 6.7567ZM18.7933 21.9576V15.7467C18.7933 14.173 18.2409 13.1183 16.8514 13.1183C15.7799 13.1183 15.1438 13.8382 14.8592 14.5246C14.7587 14.7757 14.742 15.1272 14.742 15.4621V21.9576H10.8748C10.925 11.4275 10.8748 10.3393 10.8748 10.3393H14.742V12.0301H14.7085C15.2107 11.2266 16.1315 10.0714 18.2074 10.0714C20.752 10.0714 22.6605 11.7288 22.6605 15.2946V21.9576H18.7933ZM26.6281 5.25C26.6281 2.58817 24.4685 0.42857 21.8067 0.42857H5.73529C3.07346 0.42857 0.913858 2.58817 0.913858 5.25V21.3214C0.913858 23.9833 3.07346 26.1429 5.73529 26.1429H21.8067C24.4685 26.1429 26.6281 23.9833 26.6281 21.3214V5.25Z" fill="#242424"/>
</svg>
