<svg width="28" height="22" viewBox="0 0 28 22" fill="none" xmlns="http://www.w3.org/2000/svg">
<path d="M27.2751 3.11607C26.3042 3.5346 25.2495 3.83594 24.1613 3.95312C25.283 3.28348 26.1368 2.22879 26.5385 0.973214C25.5006 1.59263 24.3287 2.04464 23.1066 2.27902C22.1189 1.22433 20.7126 0.571428 19.1557 0.571428C16.1591 0.571428 13.7484 2.99888 13.7484 5.97879C13.7484 6.39732 13.7986 6.81585 13.8823 7.21763C9.39568 6.98326 5.39457 4.8404 2.73274 1.55915C2.26399 2.36272 1.99613 3.28348 1.99613 4.28795C1.99613 6.16295 2.95037 7.82031 4.40684 8.79129C3.51957 8.75781 2.68251 8.5067 1.96265 8.10491C1.96265 8.12165 1.96265 8.15513 1.96265 8.17187C1.96265 10.8002 3.82091 12.9766 6.29859 13.4788C5.84658 13.596 5.36109 13.6629 4.87559 13.6629C4.52403 13.6629 4.18921 13.6295 3.85439 13.5792C4.54077 15.7221 6.53296 17.279 8.91019 17.3292C7.05193 18.7857 4.72492 19.6395 2.19702 19.6395C1.74501 19.6395 1.32649 19.6228 0.891219 19.5725C3.28519 21.1127 6.13117 22 9.19479 22C19.139 22 24.5798 13.7634 24.5798 6.61495C24.5798 6.38058 24.5798 6.1462 24.5631 5.91183C25.6178 5.14174 26.5385 4.1875 27.2751 3.11607Z" fill="#242424"/>
</svg>
